<svg xmlns="http://www.w3.org/2000/svg" viewBox="-350 0 1600 740" preserveAspectRatio="none" fill="none">
<!-- Cut-paper coastline, football stops and an open route into the island. -->
<circle cx="708" cy="123" r="91" fill="#F9D55D"/>
<path d="M-450 359C-100 100 -40 320 16 359C178 186 234 413 407 305S690 160 916 278C1080 220 1210 260 1350 100V740H-450Z" fill="#153F43"/>
<path d="M-450 565C-200 430 -100 620 -46 565C95 383 257 613 435 478S746 400 933 474C1100 560 1200 480 1350 570V740H-450Z" fill="#EF8FD0"/>
<path d="M-450 617C-200 550 -100 680 -24 617C145 436 285 703 460 556S766 465 930 529C1100 600 1240 540 1350 620" stroke="#FFF2D3" stroke-width="19"/>
<path d="M159 265C190 165 305 162 367 116C426 74 495 137 532 173C596 218 720 207 759 290C826 429 679 487 569 502C486 514 471 579 365 558C260 537 247 459 177 424C98 384 113 315 159 265Z" fill="#78d7df"/>
<path d="M197 273C230 194 325 203 387 158C434 124 483 178 514 206C573 245 676 242 713 305C771 399 657 442 555 458C466 470 449 529 367 509C286 489 280 423 210 389C154 361 165 319 197 273Z" fill="#DFC587"/>
<path d="M216 327C282 287 310 360 382 322S453 239 514 272S634 331 689 307" stroke="#FFF2D3" stroke-width="20" stroke-linecap="round"/>
<path d="M388 509C426 453 487 433 451 380C424 341 403 342 382 322" stroke="#FFF2D3" stroke-width="16" stroke-linecap="round" stroke-dasharray="4 28"/>
<g transform="translate(502 354) rotate(-13)"><rect width="139" height="83" rx="5" fill="#2E9A5B" stroke="#FFF2D3" stroke-width="4"/><path d="M69 1V82M0 24H18V60H0M139 24H121V60H139" stroke="#FFF2D3" stroke-width="3"/><circle cx="69" cy="41" r="17" stroke="#FFF2D3" stroke-width="3"/></g>
<circle cx="222" cy="324" r="25" fill="#ED90CF"/><circle cx="382" cy="321" r="25" fill="#F17732"/><circle cx="514" cy="272" r="25" fill="#2953E7"/>
<path d="M373 318L365 233" stroke="#163F37" stroke-width="7" stroke-linecap="round"/><path d="M366 235L415 246L369 266Z" fill="#F17732" stroke="#163F37" stroke-width="4"/>
<g fill="#163F37"><path d="M236 262L245 204L251 263Z"/><path d="M246 214C207 206 196 179 205 173C223 177 239 189 246 207C242 172 261 155 270 157C276 176 260 197 252 209C282 185 303 192 307 203C290 221 264 217 252 215C277 219 291 239 284 249C261 244 252 225 247 217C229 240 209 243 204 233C214 215 232 213 246 214Z"/>
<path d="M652 273L659 217L666 274Z"/><path d="M659 226C628 223 611 199 619 191C639 191 654 209 659 220C652 196 666 174 676 178C684 192 671 213 665 222C688 203 714 208 715 218C699 233 678 232 665 228C687 239 690 251 684 260C669 254 663 239 660 229C643 245 625 243 623 236C633 226 648 225 659 226Z"/>
</g>
<path d="M105 117L124 159L168 164L135 194L143 238L105 217L67 238L75 194L42 164L86 159Z" fill="#EF8FD0"/>
<path d="M762 565C802 539 831 543 857 564M779 591C811 572 839 578 858 590" stroke="#F9D55D" stroke-width="10" stroke-linecap="round"/>
<path d="M118 449L151 430M135 476L171 456" stroke="#FFF2D3" stroke-width="10" stroke-linecap="round"/>
</svg>
